<mxfile host="app.diagrams.net" modified="2023-10-25T03:58:04.264Z" agent="Mozilla/5.0 (Windows NT 10.0; Win64; x64) AppleWebKit/537.36 (KHTML, like Gecko) Chrome/118.0.0.0 Safari/537.36" version="22.0.6" etag="ABTjPMB03DQ5JHW_4SJM" type="github">
  <diagram name="Page-1" id="CSkI46GK_vZcpj7tyuRp">
    <mxGraphModel>
      <root>
        <mxCell id="0" />
        <mxCell id="1" parent="0" />
      </root>
    </mxGraphModel>
  </diagram>
</mxfile>
